<?xml version="1.0" encoding="utf-8"?><!DOCTYPE svg PUBLIC "-//W3C//DTD SVG 1.1//EN" "http://www.w3.org/Graphics/SVG/1.1/DTD/svg11.dtd"><svg version="1.1" xmlns="http://www.w3.org/2000/svg" xmlns:xlink="http://www.w3.org/1999/xlink" width="32" height="32" viewBox="0 0 32 32" data-tags="brand,stackoverflow"><g fill="#444" transform="scale(0.03125 0.03125)"><path fill="rgb(254, 122, 22)" d="M810.112 932.928v-273.28h91.072v364.352h-822.464v-364.352h90.88v273.28h640.384zM260.8 841.856h458.24v-91.136h-458.24v91.136zM271.872 634.816l447.168 93.44 19.2-88.32-447.040-93.376-19.328 88.32zM329.856 419.136l414.080 193.28 38.528-83.2-414.080-193.28-38.528 82.56zM445.696 214.976l350.592 292.48 57.984-69.12-350.592-292.416-57.6 68.992zM672.128 0l-74.496 55.232 273.28 367.040 74.496-55.168-273.408-367.104z" /></g></svg>